<svg width="100" height="100" viewBox="0 0 100 100" fill="none" xmlns="http://www.w3.org/2000/svg">
<path d="M49.8222 100H50.1824C73.3605 99.9388 88.8904 95.1007 92.1181 92.1169C95.5188 89.0672 100 73.2963 100 50C100 26.7037 95.5188 10.9328 92.1134 7.8831C88.8904 4.89928 73.2997 0.0611822 50.1824 0H49.8222C26.6442 0.0611822 11.1142 4.89928 7.88661 7.8831C4.48124 10.9281 0 26.7602 0 49.9953C0 73.2304 4.48124 89.0625 7.88661 92.1075C11.1142 95.1525 26.6442 99.9906 49.8222 99.9906V100Z" fill="#E2F4FE"/>
<mask id="mask0_3581_24874" style="mask-type:alpha" maskUnits="userSpaceOnUse" x="30" y="30" width="40" height="40">
<rect x="30" y="30" width="40" height="40" fill="#D9D9D9"/>
</mask>
<g mask="url(#mask0_3581_24874)">
<path d="M63.1667 65C59.8611 65 56.5278 64.2292 53.1667 62.6875C49.8056 61.1458 46.7083 58.9583 43.875 56.125C41.0417 53.2917 38.8542 50.1944 37.3125 46.8333C35.7708 43.4722 35 40.1389 35 36.8333C35 36.3148 35.1759 35.8796 35.5278 35.5278C35.8796 35.1759 36.3148 35 36.8333 35H42.9722C43.3611 35 43.6991 35.1366 43.9861 35.4097C44.2731 35.6829 44.463 36.0185 44.5555 36.4167L45.6667 41.8611C45.7222 42.2685 45.713 42.6296 45.6389 42.9444C45.5648 43.2593 45.4166 43.5278 45.1944 43.75L41.0694 47.9167C41.7361 49.0741 42.4652 50.1644 43.2569 51.1875C44.0486 52.2106 44.9213 53.1852 45.875 54.1111C46.8472 55.1019 47.8704 56.0116 48.9445 56.8403C50.0185 57.669 51.1482 58.4074 52.3333 59.0556L56.2778 55.0278C56.5463 54.7408 56.8681 54.5394 57.2431 54.4236C57.6181 54.3079 57.9908 54.2778 58.3611 54.3333L63.5833 55.4445C63.9908 55.5556 64.3287 55.7708 64.5972 56.0903C64.8657 56.4097 65 56.7685 65 57.1667V63.1667C65 63.6852 64.8241 64.1204 64.4722 64.4722C64.1204 64.8241 63.6852 65 63.1667 65Z" fill="#0357EE"/>
<path d="M50.4443 36.3889V48.6666C50.4443 48.9815 50.5786 49.1991 50.8471 49.3194C51.1156 49.4398 51.3703 49.3888 51.611 49.1666L54.9999 45.8889H63.611C64.0091 45.8889 64.3402 45.7569 64.604 45.493C64.8679 45.2292 64.9999 44.8981 64.9999 44.5V36.3889C64.9999 35.9907 64.8679 35.6597 64.604 35.3958C64.3402 35.1319 64.0091 35 63.611 35H51.8332C51.4351 35 51.1041 35.1319 50.8402 35.3958C50.5763 35.6597 50.4443 35.9907 50.4443 36.3889Z" fill="#0357EE"/>
</g>
</svg>
