<svg width="100" height="100" viewBox="0 0 100 100" fill="none" xmlns="http://www.w3.org/2000/svg">
<path d="M49.8222 100H50.1824C73.3605 99.9388 88.8904 95.1007 92.1181 92.1169C95.5188 89.0672 100 73.2963 100 50C100 26.7037 95.5188 10.9328 92.1134 7.8831C88.8904 4.89928 73.2997 0.0611822 50.1824 0H49.8222C26.6442 0.0611822 11.1142 4.89928 7.88661 7.8831C4.48124 10.9281 0 26.7602 0 49.9953C0 73.2304 4.48124 89.0625 7.88661 92.1075C11.1142 95.1525 26.6442 99.9906 49.8222 99.9906V100Z" fill="#E2F4FE"/>
<mask id="mask0_3581_24879" style="mask-type:alpha" maskUnits="userSpaceOnUse" x="30" y="30" width="40" height="40">
<rect x="30" y="30" width="40" height="40" fill="#D9D9D9"/>
</mask>
<g mask="url(#mask0_3581_24879)">
<path d="M54.5834 43.191C54.5834 41.897 54.1622 40.8657 53.3198 40.0972C52.4773 39.3287 51.3615 38.9444 49.9723 38.9444C49.1147 38.9444 48.3385 39.1322 47.6436 39.5078C46.9488 39.8833 46.35 40.4317 45.8473 41.1528C45.4954 41.662 45.0209 41.9699 44.4237 42.0764C43.8265 42.1828 43.2778 42.0694 42.7778 41.7361C42.2964 41.412 42.0117 41.0139 41.9237 40.5417C41.8357 40.0694 41.9538 39.5787 42.2778 39.0695C43.1297 37.7732 44.2257 36.7708 45.5659 36.0625C46.9061 35.3542 48.3749 35 49.9723 35C52.6112 35 54.7385 35.7383 56.3542 37.2149C57.9699 38.6915 58.7778 40.6245 58.7778 43.0139C58.7778 44.2824 58.5047 45.4444 57.9584 46.5C57.4121 47.5556 56.4769 48.7268 55.1528 50.0139C54.1251 50.9861 53.4306 51.7543 53.0695 52.3186C52.7084 52.8828 52.4723 53.5266 52.3612 54.25C52.2686 54.8611 52.007 55.3704 51.5764 55.7778C51.1459 56.1852 50.6408 56.3889 50.0612 56.3889C49.4816 56.3889 48.984 56.1921 48.5682 55.7986C48.1524 55.4051 47.9445 54.9352 47.9445 54.3889C47.9445 53.3982 48.1899 52.456 48.6806 51.5625C49.1713 50.669 49.9479 49.7387 51.0101 48.7716C52.3645 47.5628 53.2987 46.5486 53.8126 45.7292C54.3264 44.9097 54.5834 44.0637 54.5834 43.191Z" fill="#0357EE"/>
<path d="M47.8128 65.7675C48.41 66.3663 49.1291 66.6658 49.9701 66.6658C50.811 66.6658 51.531 66.3672 52.1298 65.7699C52.7286 65.1727 53.0281 64.4536 53.0281 63.6127C53.0281 62.7717 52.7295 62.0518 52.1323 61.453C51.5351 60.8541 50.816 60.5547 49.975 60.5547C49.134 60.5547 48.4141 60.8533 47.8153 61.4505C47.2164 62.0477 46.917 62.7668 46.917 63.6078C46.917 64.4487 47.2156 65.1686 47.8128 65.7675Z" fill="#0357EE"/>
</g>
</svg>
